<svg width="65" height="62" viewBox="0 0 65 62" fill="none" xmlns="http://www.w3.org/2000/svg">
<path d="M63.6248 36.2611C63.4338 36.2586 63.2513 36.1816 63.1162 36.0465C62.9811 35.9114 62.9041 35.7289 62.9016 35.5379V25.1429C62.9016 24.9511 62.9778 24.7671 63.1134 24.6315C63.2491 24.4958 63.433 24.4196 63.6248 24.4196C63.8166 24.4196 64.0006 24.4958 64.1362 24.6315C64.2718 24.7671 64.348 24.9511 64.348 25.1429V35.5475C64.3455 35.7376 64.2682 35.9191 64.1329 36.0527C63.9975 36.1862 63.815 36.2611 63.6248 36.2611Z" fill="#21268F"/>
<path d="M63.6248 21.9993C63.433 21.9993 63.2491 21.9231 63.1134 21.7875C62.9778 21.6519 62.9016 21.4679 62.9016 21.2761V19.145C62.9016 18.9532 62.9778 18.7693 63.1134 18.6336C63.2491 18.498 63.433 18.4218 63.6248 18.4218C63.8166 18.4218 64.0006 18.498 64.1362 18.6336C64.2718 18.7693 64.348 18.9532 64.348 19.145V21.2857C64.348 21.3803 64.3293 21.4738 64.2928 21.5611C64.2564 21.6483 64.2029 21.7274 64.1356 21.7938C64.0683 21.8601 63.9885 21.9125 63.9009 21.9478C63.8132 21.9831 63.7193 22.0006 63.6248 21.9993Z" fill="#21268F"/>
<path d="M5.00941 11.5656H1.0056C0.591203 11.5656 0.254883 11.2293 0.254883 10.8149C0.254883 10.4005 0.591203 10.0642 1.0056 10.0642H5.00941C5.42381 10.0642 5.76013 10.4005 5.76013 10.8149C5.76013 11.2293 5.42381 11.5656 5.00941 11.5656Z" fill="#21268F"/>
<path d="M3.00828 13.5677C2.59389 13.5677 2.25757 13.2313 2.25757 12.8169V8.81313C2.25757 8.39873 2.59389 8.06241 3.00828 8.06241C3.42268 8.06241 3.759 8.39873 3.759 8.81313V12.8169C3.759 13.2313 3.42268 13.5677 3.00828 13.5677Z" fill="#21268F"/>
<path d="M17.4642 57.9286C17.9965 57.9286 18.4285 58.3606 18.4285 58.8929C18.4285 59.4251 17.9965 59.8571 17.4642 59.8571C16.9319 59.8571 16.4999 59.4251 16.4999 58.8929C16.4999 58.3606 16.9319 57.9286 17.4642 57.9286Z" fill="#21268F"/>
<path d="M11.6785 57.9286C12.2108 57.9286 12.6428 58.3606 12.6428 58.8929C12.6428 59.4251 12.2108 59.8571 11.6785 59.8571C11.1463 59.8571 10.7143 59.4251 10.7143 58.8929C10.7143 58.3606 11.1463 57.9286 11.6785 57.9286Z" fill="#21268F"/>
<path d="M5.89289 57.9286C6.42518 57.9286 6.85718 58.3606 6.85718 58.8929C6.85718 59.4251 6.42518 59.8571 5.89289 59.8571C5.36061 59.8571 4.92861 59.4251 4.92861 58.8929C4.92861 58.3606 5.36061 57.9286 5.89289 57.9286Z" fill="#21268F"/>
<path d="M29.8477 1.14706L2.7356 23.4207L29.8477 45.7047L56.9597 23.4207L29.8477 1.14706Z" fill="#D7D8EF"/>
<path d="M29.8477 46.4866C29.6703 46.4716 29.504 46.394 29.3785 46.2676L2.26643 23.9836C2.1778 23.9098 2.1066 23.8173 2.05792 23.7127C2.00925 23.6082 1.9843 23.4941 1.98487 23.3788C1.98638 23.2638 2.01225 23.1504 2.06079 23.0462C2.10932 22.9419 2.17941 22.8492 2.26643 22.774L29.3785 0.500356C29.5219 0.372107 29.7075 0.301208 29.8999 0.301208C30.0923 0.301208 30.2779 0.372107 30.4213 0.500356L57.5333 22.774C57.6204 22.8492 57.6904 22.9419 57.739 23.0462C57.7875 23.1504 57.8134 23.2638 57.8149 23.3788C57.8155 23.4941 57.7905 23.6082 57.7418 23.7127C57.6932 23.8173 57.622 23.9098 57.5333 23.9836L30.4213 46.2676C30.3465 46.3425 30.2568 46.4007 30.1579 46.4384C30.0591 46.4762 29.9534 46.4926 29.8477 46.4866ZM3.96615 23.4205L29.8477 44.693L55.7293 23.4205L29.8477 2.15839L3.96615 23.4205Z" fill="#21268F"/>
<path d="M49.1392 7.40363H10.5566V53.2856H49.1392V7.40363Z" fill="#D7D8EF"/>
<path d="M38.3362 20.9597L25.1555 31.794V53.2856H49.1393V20.9597H38.3362Z" fill="#D7D8EF"/>
<path d="M38.3362 20.9597L25.1555 31.794V53.2856H49.1393V20.9597H38.3362Z" fill="#D7D8EF"/>
<path d="M49.1913 54.0675H10.6087C10.4022 54.0648 10.2048 53.9816 10.0587 53.8355C9.91263 53.6894 9.82936 53.492 9.82666 53.2855V7.40351C9.8321 7.19972 9.91689 7.00611 10.063 6.86392C10.2091 6.72173 10.4049 6.6422 10.6087 6.64227H49.1913C49.3987 6.64227 49.5976 6.72467 49.7443 6.87133C49.891 7.018 49.9734 7.21693 49.9734 7.42435V53.3063C49.9654 53.5092 49.8798 53.7014 49.7342 53.843C49.5887 53.9847 49.3944 54.065 49.1913 54.0675ZM11.3387 52.5242H48.3571V8.20643H11.3387V52.5242Z" fill="#21268F"/>
<path d="M42.3611 14.4423H30.192C29.9846 14.4423 29.7856 14.3598 29.639 14.2132C29.4923 14.0665 29.4099 13.8676 29.4099 13.6602C29.4099 13.4528 29.4923 13.2538 29.639 13.1072C29.7856 12.9605 29.9846 12.8781 30.192 12.8781H42.3611C42.5686 12.8781 42.7675 12.9605 42.9142 13.1072C43.0608 13.2538 43.1432 13.4528 43.1432 13.6602C43.1432 13.8676 43.0608 14.0665 42.9142 14.2132C42.7675 14.3598 42.5686 14.4423 42.3611 14.4423Z" fill="#21268F"/>
<path d="M26.0209 14.4423H17.3346C17.1271 14.4423 16.9282 14.3598 16.7816 14.2132C16.6349 14.0665 16.5525 13.8676 16.5525 13.6602C16.5525 13.4528 16.6349 13.2538 16.7816 13.1072C16.9282 12.9605 17.1271 12.8781 17.3346 12.8781H26.0209C26.2283 12.8781 26.4272 12.9605 26.5739 13.1072C26.7205 13.2538 26.8029 13.4528 26.8029 13.6602C26.8029 13.8676 26.7205 14.0665 26.5739 14.2132C26.4272 14.3598 26.2283 14.4423 26.0209 14.4423Z" fill="#21268F"/>
<path d="M42.3607 19.6561H34.3626C34.1552 19.6561 33.9563 19.5737 33.8096 19.427C33.663 19.2804 33.5806 19.0815 33.5806 18.8741C33.5806 18.6666 33.663 18.4677 33.8096 18.321C33.9563 18.1744 34.1552 18.092 34.3626 18.092H42.3607C42.5681 18.092 42.7671 18.1744 42.9137 18.321C43.0604 18.4677 43.1428 18.6666 43.1428 18.8741C43.1428 19.0815 43.0604 19.2804 42.9137 19.427C42.7671 19.5737 42.5681 19.6561 42.3607 19.6561Z" fill="#21268F"/>
<path d="M30.1919 19.6561H17.3346C17.1271 19.6561 16.9282 19.5737 16.7816 19.427C16.6349 19.2804 16.5525 19.0815 16.5525 18.8741C16.5525 18.6666 16.6349 18.4677 16.7816 18.321C16.9282 18.1744 17.1271 18.092 17.3346 18.092H30.1919C30.3994 18.092 30.5983 18.1744 30.745 18.321C30.8916 18.4677 30.974 18.6666 30.974 18.8741C30.974 19.0815 30.8916 19.2804 30.745 19.427C30.5983 19.5737 30.3994 19.6561 30.1919 19.6561Z" fill="#21268F"/>
<path d="M42.361 24.87H28.1063C27.8989 24.87 27.6999 24.7876 27.5533 24.6409C27.4066 24.4943 27.3242 24.2954 27.3242 24.088C27.3242 23.8805 27.4066 23.6816 27.5533 23.5349C27.6999 23.3883 27.8989 23.3059 28.1063 23.3059H42.361C42.5684 23.3059 42.7673 23.3883 42.914 23.5349C43.0607 23.6816 43.1431 23.8805 43.1431 24.088C43.1431 24.2954 43.0607 24.4943 42.914 24.6409C42.7673 24.7876 42.5684 24.87 42.361 24.87Z" fill="#21268F"/>
<path d="M23.9353 24.87H17.3346C17.1271 24.87 16.9282 24.7876 16.7816 24.6409C16.6349 24.4943 16.5525 24.2954 16.5525 24.088C16.5525 23.8805 16.6349 23.6816 16.7816 23.5349C16.9282 23.3883 17.1271 23.3059 17.3346 23.3059H23.9353C24.1427 23.3059 24.3417 23.3883 24.4883 23.5349C24.635 23.6816 24.7174 23.8805 24.7174 24.088C24.7174 24.2954 24.635 24.4943 24.4883 24.6409C24.3417 24.7876 24.1427 24.87 23.9353 24.87Z" fill="#21268F"/>
<path d="M42.3609 30.0839H35.4056C35.1982 30.0839 34.9993 30.0015 34.8526 29.8548C34.7059 29.7081 34.6235 29.5092 34.6235 29.3018C34.6235 29.0944 34.7059 28.8955 34.8526 28.7488C34.9993 28.6021 35.1982 28.5197 35.4056 28.5197H42.3609C42.5683 28.5197 42.7673 28.6021 42.9139 28.7488C43.0606 28.8955 43.143 29.0944 43.143 29.3018C43.143 29.5092 43.0606 29.7081 42.9139 29.8548C42.7673 30.0015 42.5683 30.0839 42.3609 30.0839Z" fill="#21268F"/>
<path d="M31.2347 30.0839H17.3346C17.1271 30.0839 16.9282 30.0015 16.7816 29.8548C16.6349 29.7081 16.5525 29.5092 16.5525 29.3018C16.5525 29.0944 16.6349 28.8955 16.7816 28.7488C16.9282 28.6021 17.1271 28.5197 17.3346 28.5197H31.2347C31.4421 28.5197 31.6411 28.6021 31.7877 28.7488C31.9344 28.8955 32.0168 29.0944 32.0168 29.3018C32.0168 29.5092 31.9344 29.7081 31.7877 29.8548C31.6411 30.0015 31.4421 30.0839 31.2347 30.0839Z" fill="#21268F"/>
<path d="M36.803 35.2978H22.8924C22.685 35.2978 22.4861 35.2153 22.3394 35.0687C22.1927 34.922 22.1104 34.7231 22.1104 34.5157C22.1104 34.3083 22.1927 34.1093 22.3394 33.9627C22.4861 33.816 22.685 33.7336 22.8924 33.7336H36.803C37.0104 33.7336 37.2094 33.816 37.356 33.9627C37.5027 34.1093 37.5851 34.3083 37.5851 34.5157C37.5851 34.7231 37.5027 34.922 37.356 35.0687C37.2094 35.2153 37.0104 35.2978 36.803 35.2978Z" fill="#21268F"/>
<path d="M2.7356 23.4205V53.2855L20.9007 38.353L2.7356 23.4205Z" fill="#D7D8EF"/>
<path d="M38.7949 38.353L56.96 53.2855V23.4205L38.7949 38.353Z" fill="#D7D8EF"/>
<path d="M29.8477 45.7046L20.9007 38.3531L2.7356 53.2856H56.9597L38.7946 38.3531L29.8477 45.7046Z" fill="#D7D8EF"/>
<path d="M7.94971 31.8043V48.9996L18.4087 40.4072L7.94971 31.8043Z" fill="#D7D8EF"/>
<path d="M7.94971 31.8043V48.9996L18.4087 40.4072L7.94971 31.8043Z" fill="#D7D8EF"/>
<path d="M47.0952 40.1153L56.9598 48.228V32.0129L47.0952 40.1153Z" fill="#D7D8EF"/>
<path d="M47.0952 40.1153L56.9598 48.228V32.0129L47.0952 40.1153Z" fill="#D7D8EF"/>
<path d="M2.73569 54.0676C2.61951 54.066 2.50529 54.0374 2.40201 53.9841C2.26846 53.9225 2.1553 53.824 2.07586 53.7002C1.99642 53.5765 1.954 53.4326 1.95361 53.2855V23.4205C1.954 23.2734 1.99642 23.1295 2.07586 23.0057C2.1553 22.882 2.26846 22.7835 2.40201 22.7219C2.5356 22.6566 2.68503 22.6307 2.83278 22.6474C2.98053 22.664 3.12047 22.7224 3.23622 22.8157L21.4013 37.7482C21.4892 37.8226 21.5598 37.9152 21.6082 38.0197C21.6566 38.1241 21.6817 38.2379 21.6817 38.353C21.6817 38.4681 21.6566 38.5819 21.6082 38.6863C21.5598 38.7908 21.4892 38.8834 21.4013 38.9578L3.23622 53.8799C3.09707 54.0001 2.91957 54.0666 2.73569 54.0676ZM3.51777 25.0785V51.6275L19.6703 38.353L3.51777 25.0785Z" fill="#21268F"/>
<path d="M43.9773 42.6074L32.559 51.9923L24.5922 45.4437L15.0613 53.2854H56.9598L43.9773 42.6074Z" fill="#D7D8EF"/>
<path d="M43.9773 42.6074L32.559 51.9923L24.5922 45.4437L15.0613 53.2854H56.9598L43.9773 42.6074Z" fill="#D7D8EF"/>
<path d="M56.9601 54.0676C56.7763 54.0667 56.5988 54.0001 56.4596 53.8799L38.2945 38.9682C38.2067 38.8938 38.1361 38.8012 38.0877 38.6968C38.0392 38.5923 38.0142 38.4786 38.0142 38.3634C38.0142 38.2483 38.0392 38.1345 38.0877 38.0301C38.1361 37.9256 38.2067 37.833 38.2945 37.7586L56.4909 22.8157C56.6066 22.7224 56.7466 22.664 56.8944 22.6474C57.0421 22.6307 57.1915 22.6566 57.3251 22.7219C57.4587 22.7835 57.5718 22.882 57.6513 23.0057C57.7307 23.1295 57.7731 23.2734 57.7735 23.4205V53.2855C57.7731 53.4326 57.7307 53.5765 57.6513 53.7003C57.5718 53.824 57.4587 53.9225 57.3251 53.9841C57.2125 54.0423 57.0869 54.071 56.9601 54.0676ZM40.0255 38.353L56.1781 51.6275V25.0785L40.0255 38.353Z" fill="#21268F"/>
<path d="M56.9597 54.0676H2.73557C2.57368 54.0668 2.41595 54.0163 2.28359 53.9231C2.15122 53.8299 2.05059 53.6984 1.99521 53.5463C1.94293 53.3947 1.93786 53.2308 1.98068 53.0762C2.0235 52.9217 2.1122 52.7838 2.23504 52.6807L20.4001 37.7482C20.5435 37.62 20.7291 37.5491 20.9215 37.5491C21.1139 37.5491 21.2995 37.62 21.4429 37.7482L29.8894 44.6931L38.3358 37.7482C38.4792 37.62 38.6648 37.5491 38.8572 37.5491C39.0496 37.5491 39.2352 37.62 39.3786 37.7482L57.5437 52.6807C57.6665 52.7838 57.7552 52.9217 57.798 53.0762C57.8408 53.2308 57.8358 53.3947 57.7835 53.5463C57.7239 53.7125 57.6105 53.8541 57.4613 53.9486C57.312 54.0431 57.1355 54.085 56.9597 54.0676ZM4.91496 52.5243H54.7803L38.7633 39.3646L30.3169 46.3094C30.1735 46.4377 29.9879 46.5086 29.7955 46.5086C29.6031 46.5086 29.4175 46.4377 29.2741 46.3094L20.8277 39.3646L4.91496 52.5243Z" fill="#21268F"/>
<path d="M28.1525 59.7799H24.1487C23.7343 59.7799 23.3979 59.4436 23.3979 59.0292C23.3979 58.6148 23.7343 58.2785 24.1487 58.2785H28.1525C28.5669 58.2785 28.9032 58.6148 28.9032 59.0292C28.9032 59.4436 28.5669 59.7799 28.1525 59.7799Z" fill="#21268F"/>
<path d="M26.1511 61.782C25.7367 61.782 25.4004 61.4456 25.4004 61.0312V57.0274C25.4004 56.613 25.7367 56.2767 26.1511 56.2767C26.5655 56.2767 26.9018 56.613 26.9018 57.0274V61.0312C26.9018 61.4456 26.5655 61.782 26.1511 61.782Z" fill="#21268F"/>
</svg>
